<svg width="171" height="159" viewBox="0 0 171 159" fill="none" xmlns="http://www.w3.org/2000/svg">
<path d="M66.8312 119.529C77.2252 119.981 80.7713 111.823 81.4518 106.452C81.5688 105.529 82.3226 104.784 83.2534 104.784H87.1188C88.0497 104.784 88.8036 105.529 88.9195 106.453C89.5972 111.854 93.1414 120.068 103.541 119.613C113.066 119.197 123.102 116.891 128.967 115.211C130.295 114.831 131.561 116.067 131.172 117.393L124.236 141.058C123.65 143.058 122.183 144.682 120.252 145.468L88.5784 158.368C86.5047 159.213 84.1825 159.21 82.1107 158.361L50.1029 145.245C48.182 144.458 46.7227 142.841 46.1358 140.85L39.2047 117.337C38.8141 116.012 40.0775 114.774 41.4062 115.152C47.2712 116.823 57.3073 119.115 66.8312 119.529Z" fill="#F5F5F5"/>
<path d="M32.1908 56.0897C42.3655 61.468 71.3319 63.6025 85.3431 63.9999C99.3552 63.6024 128.608 61.4678 138.809 56.0887C139.774 55.5798 140.848 55.2964 141.925 55.4719C152.572 57.207 171 62.1079 171 69.9607C171 80.3136 136.486 89.7254 85.3431 89.0979C34.2 89.7254 0 80.3136 0 69.9607C0 62.1079 18.4277 57.207 29.0752 55.4719C30.1522 55.2964 31.2262 55.5798 32.1908 56.0897Z" fill="#F5F5F5"/>
<path d="M39.0204 47.8228C48.6913 52.6199 73.8002 54.6127 85.7535 54.9019C97.7067 54.6127 122.502 52.2704 132.173 47.4733C133.61 46.7601 134.329 45.2895 134.139 43.696C133.079 34.7725 127.479 6.03902 123.091 2.47397C121.836 1.21907 118.698 -0.726032 112.423 0.277888C104.579 1.53279 90.1461 10.0392 85.7535 9.72548C81.3608 10.0392 66.614 1.88234 58.77 0.627439C52.4948 -0.376481 49.3571 1.56863 48.1021 2.82352C43.7138 6.38857 38.1144 35.1221 37.0537 44.0456C36.8643 45.6391 37.5827 47.1096 39.0204 47.8228Z" fill="#F5F5F5"/>
</svg>
